<?xml version="1.0" encoding="UTF-8"?>
<svg width="912px" height="123px" viewBox="0 0 912 123" version="1.1" xmlns="http://www.w3.org/2000/svg" xmlns:xlink="http://www.w3.org/1999/xlink">
    <g id="Page-1" stroke="none" stroke-width="1" fill="none" fill-rule="evenodd">
        <g id="logo" fill="#FFFFFF">
            <polygon id="Shape" points="0 2.1 28.9 2.1 54.4 61.8 79.9 2.1 108.8 2.1 54.4 122.8"></polygon>
            <polygon id="Shape" points="121.8 2.1 147.8 2.1 147.8 121.5 121.8 121.5"></polygon>
            <path d="M167.1,2.1 L207.5,2.1 C215.6,2.1 223.2,3.7 230.4,6.8 C237.5,9.9 243.7,14.2 249,19.6 C254.3,25 258.4,31.3 261.5,38.6 C264.6,45.9 266.1,53.6 266.1,61.8 C266.1,70.1 264.6,77.9 261.5,85.1 C258.4,92.3 254.2,98.6 249,104 C243.7,109.4 237.6,113.6 230.4,116.8 C223.3,119.9 215.6,121.5 207.5,121.5 L167.1,121.5 L167.1,2.1 L167.1,2.1 Z M207.5,96.9 C212.4,96.9 216.8,96 220.7,94.1 C224.7,92.3 228.1,89.7 230.9,86.5 C233.8,83.3 236,79.6 237.6,75.3 C239.2,71 240,66.5 240,61.7 C240,56.9 239.2,52.3 237.6,48.1 C236,43.8 233.8,40.1 230.9,36.9 C228,33.7 224.6,31.2 220.7,29.3 C216.7,27.5 212.3,26.5 207.5,26.5 L193,26.5 L193,96.8 L207.5,96.8 L207.5,96.9 Z" id="Shape"></path>
            <polygon id="Shape" points="280.1 2.1 351.5 2.1 351.5 28.7 306 28.7 306 48.9 341.7 48.9 341.7 74.8 306 74.8 306 95 351.5 95 351.5 121.6 280.1 121.6"></polygon>
            <path d="M416.9,122.8 C408.8,122.8 401.2,121.2 394,118 C386.8,114.8 380.6,110.4 375.2,104.9 C369.8,99.4 365.6,92.9 362.5,85.5 C359.4,78.1 357.9,70.2 357.9,61.8 C357.9,53.4 359.4,45.5 362.5,38.1 C365.6,30.7 369.8,24.2 375.2,18.7 C380.6,13.2 386.8,8.8 394,5.6 C401.1,2.4 408.8,0.8 416.9,0.8 C425,0.8 432.7,2.4 439.8,5.6 C446.9,8.8 453.2,13.2 458.6,18.7 C464,24.2 468.2,30.7 471.3,38.1 C474.4,45.5 475.9,53.4 475.9,61.8 C475.9,70.2 474.4,78.1 471.3,85.5 C468.2,92.9 464,99.4 458.6,104.9 C453.2,110.4 447,114.8 439.8,118 C432.6,121.2 425,122.8 416.9,122.8 L416.9,122.8 Z M416.9,96.9 C421.6,96.9 425.9,96 429.9,94.1 C433.9,92.3 437.4,89.7 440.3,86.5 C443.2,83.3 445.5,79.6 447.2,75.3 C448.9,71 449.7,66.5 449.7,61.7 C449.7,56.9 448.9,52.3 447.2,48.1 C445.5,43.9 443.2,40.1 440.3,36.9 C437.4,33.7 433.9,31.2 429.9,29.3 C425.9,27.5 421.6,26.5 416.9,26.5 C412.2,26.5 407.9,27.4 403.9,29.3 C399.9,31.2 396.4,33.7 393.5,36.9 C390.6,40.1 388.3,43.8 386.6,48.1 C384.9,52.4 384.1,56.9 384.1,61.7 C384.1,66.5 384.9,71.1 386.6,75.3 C388.3,79.6 390.6,83.3 393.5,86.5 C396.4,89.7 399.9,92.2 403.9,94.1 C407.9,96 412.2,96.9 416.9,96.9 L416.9,96.9 Z" id="Shape"></path>
            <polygon id="Shape" points="489.1 2.1 515.1 2.1 515.1 94.7 559.9 94.7 559.9 121.4 489.1 121.4"></polygon>
            <path d="M629.4,0.7 L686.2,121.4 L659,121.4 L650.7,102.9 L608.2,102.9 L599.9,121.4 L572.6,121.4 L629.4,0.7 L629.4,0.7 Z M640.3,81.1 L629.4,56.2 L618.5,81.1 L640.3,81.1 L640.3,81.1 Z" id="Shape"></path>
            <polygon id="Shape" points="725.2 59.1 725.2 121.5 699.2 121.5 699.2 0.7 771.9 64.4 771.9 2 797.9 2 797.9 122.7"></polygon>
            <path d="M813,2.1 L853.4,2.1 C861.5,2.1 869.1,3.7 876.3,6.8 C883.4,9.9 889.6,14.2 894.9,19.6 C900.2,25 904.3,31.3 907.4,38.6 C910.5,45.9 912,53.6 912,61.8 C912,70.1 910.5,77.9 907.4,85.1 C904.3,92.3 900.1,98.6 894.9,104 C889.7,109.4 883.5,113.6 876.3,116.8 C869.2,119.9 861.5,121.5 853.4,121.5 L813,121.5 L813,2.1 L813,2.1 Z M853.4,96.9 C858.3,96.9 862.7,96 866.6,94.1 C870.6,92.3 874,89.7 876.8,86.5 C879.7,83.3 881.9,79.6 883.5,75.3 C885.1,71 885.9,66.5 885.9,61.7 C885.9,56.9 885.1,52.3 883.5,48.1 C881.9,43.9 879.7,40.1 876.8,36.9 C873.9,33.7 870.5,31.2 866.6,29.3 C862.6,27.5 858.2,26.5 853.4,26.5 L839,26.5 L839,96.8 L853.4,96.8 L853.4,96.9 Z" id="Shape"></path>
        </g>
    </g>
</svg>
