<svg xmlns="http://www.w3.org/2000/svg" viewBox="0 0 138 56"><path fill="#93C01F" d="M28 21.2c-3-1.7-5.9-2.5-9.3-2.5h18.7c0-3.4-.8-6.4-2.5-9.3-1.7-3-3.9-5.1-6.8-6.8C25 .8 22.1 0 18.7 0c-3.4 0-6.4.8-9.3 2.5-3 1.7-5.1 3.9-6.8 6.8-1.7 3-2.5 5.9-2.5 9.3S.8 25 2.5 28s3.9 5.1 6.8 6.8c3 1.7 5.9 2.5 9.3 2.5H0c0 3.4.8 6.4 2.5 9.3 1.7 3 3.9 5.1 6.8 6.8 3 1.7 5.9 2.5 9.3 2.5 3.4 0 6.4-.8 9.3-2.5 3-1.7 5.1-3.9 6.8-6.8 1.7-3 2.5-5.9 2.5-9.3 0-3.4-.8-6.4-2.5-9.3-1.6-3-3.7-5.1-6.7-6.8z"/><path fill="#009FE3" d="M9.3 2.5c-3 1.7-5.1 3.9-6.8 6.8-1.7 3-2.5 5.9-2.5 9.3h18.7V0c-3.5 0-6.4.8-9.4 2.5z"/><path fill="#00B1EB" d="M0 18.7C0 22.1.8 25 2.5 28c1.7 3 3.9 5.1 6.8 6.8l9.3-16.2H0z"/><path fill="#00ACA9" d="M18.7 18.7v18.7c-3.4 0-6.4-.8-9.3-2.5l9.3-16.2zm0 0l16.2-9.3c1.7 3 2.5 5.9 2.5 9.3H18.7z"/><path fill="#008BD2" d="M28 2.5C25 .8 22.1 0 18.7 0v18.7l16.2-9.3c-1.8-3-3.9-5.2-6.9-6.9z"/><path fill="#76B72A" d="M18.7 37.3L2.5 46.7C.8 43.7 0 40.8 0 37.4h18.7z"/><path fill="#C8D400" d="M18.7 37.3L9.3 53.5c-3-1.7-5.1-3.9-6.8-6.8l16.2-9.4z"/><path fill="#AFCA0B" d="M18.7 37.3L9.3 53.5c3 1.7 5.9 2.5 9.3 2.5 3.4 0 6.4-.8 9.3-2.5l-9.2-16.2z"/><path fill="#76B72A" d="M34.8 28l-16.2 9.3L28 53.5c3-1.7 5.1-3.9 6.8-6.8 1.7-3 2.5-5.9 2.5-9.3 0-3.5-.8-6.4-2.5-9.4z"/><path fill="#00A770" d="M28 21.2c-3-1.7-5.9-2.5-9.3-2.5v18.7L34.8 28c-1.7-3-3.8-5.1-6.8-6.8z"/><path d="M61.6 38.9c-1.8 0-4.4-.4-6.1-1l.8-3.7c1.4.4 3.2.8 5.1.8 1.5 0 1.7-.4 1.7-1.4 0-1.1 0-1.2-2.7-1.9-4.1-1-4.4-2.1-4.4-5.2 0-3.5 1.4-5 6.4-5 1.3 0 3.6.2 5.1.6l-.5 3.8c-1.5-.3-3.3-.5-4.6-.5-1.4 0-1.8.4-1.8 1.1 0 1 .1 1.2 2.1 1.6 4.8 1.1 5.1 2.1 5.1 5.4 0 3.5-1.4 5.4-6.2 5.4zm15.3 0c-3.2 0-5.1-1.2-5.1-4.3v-8.8h-2.3v-4h2.3v-4l5-.7v4.7h3.8l-.3 4h-3.5v8.1c0 .7.4.9 1 .9s1.3-.1 2.1-.3l.6 3.8c-1.1.4-2.5.6-3.6.6zm5.9-6.8v-3.9c0-3.4 1.6-6.8 7.6-6.8s7.6 3.3 7.6 6.8v3.9c0 3.4-1.6 6.8-7.6 6.8s-7.6-3.3-7.6-6.8zm10.2.2v-4.2c0-1.6-.8-2.5-2.6-2.5s-2.6.9-2.6 2.5v4.2c0 1.6.8 2.5 2.6 2.5 1.8-.1 2.6-.9 2.6-2.5zm13.6-4v10.2h-5V21.8h4.1l.3 1.6c1-.7 3.2-1.7 4.5-2l.4 4.7c-1.4.6-3.3 1.5-4.3 2.2zm16.7 10.3V27.5c0-.8-.3-1.2-1.2-1.2-.9 0-2.5.6-3.6 1.2v11.1h-5V21.8h3.7l.5 1.3c2.1-1 4.8-1.6 6.7-1.6 1.5 0 2.5.6 3.1 1.6 1.9-.9 4.4-1.6 6.7-1.6 2.9 0 3.9 2.1 3.9 5.4v11.7h-5V27.5c0-.8-.3-1.2-1.2-1.2-.9 0-2.5.6-3.6 1.2v11.1h-5z" fill="#757575"/></svg>